<svg width="27" height="27" viewBox="0 0 27 27" fill="none" xmlns="http://www.w3.org/2000/svg">
<g clip-path="url(#clip0)">
<path d="M26.9735 7.93807C26.9103 6.50346 26.6783 5.51718 26.3459 4.66255C26.0031 3.75538 25.4756 2.94319 24.7846 2.26802C24.1094 1.58234 23.2919 1.04954 22.3952 0.712053C21.5357 0.37972 20.5545 0.147726 19.1199 0.0844739C17.6746 0.0158646 17.2157 0 13.55 0C9.88424 0 9.4254 0.0158646 7.98543 0.079117C6.55082 0.142369 5.56454 0.37457 4.71011 0.706696C3.80274 1.04954 2.99056 1.57698 2.31538 2.26802C1.6297 2.94319 1.09711 3.76074 0.759416 4.6574C0.427084 5.51718 0.19509 6.4981 0.131837 7.93272C0.0632279 9.37804 0.0473633 9.83688 0.0473633 13.5026C0.0473633 17.1684 0.0632279 17.6272 0.12648 19.0672C0.189733 20.5018 0.421933 21.4881 0.754265 22.3427C1.09711 23.2499 1.6297 24.0621 2.31538 24.7373C2.99056 25.4229 3.8081 25.9557 4.70476 26.2932C5.56454 26.6256 6.54546 26.8575 7.98028 26.9208C9.42005 26.9843 9.87909 26.9999 13.5448 26.9999C17.2106 26.9999 17.6694 26.9843 19.1094 26.9208C20.544 26.8575 21.5303 26.6256 22.3847 26.2932C24.1993 25.5917 25.6339 24.1571 26.3354 22.3427C26.6676 21.4829 26.8997 20.5018 26.963 19.0672C27.0263 17.6272 27.0421 17.1684 27.0421 13.5026C27.0421 9.83688 27.0368 9.37804 26.9735 7.93807ZM24.5421 18.9617C24.484 20.2803 24.2625 20.9924 24.0779 21.4671C23.6242 22.6433 22.6907 23.5769 21.5144 24.0306C21.0397 24.2152 20.3225 24.4366 19.0091 24.4945C17.585 24.558 17.1579 24.5737 13.5554 24.5737C9.95285 24.5737 9.52039 24.558 8.10143 24.4945C6.78281 24.4366 6.07076 24.2152 5.59606 24.0306C5.01072 23.8142 4.47791 23.4714 4.04545 23.0231C3.59712 22.5852 3.25428 22.0578 3.03794 21.4724C2.85334 20.9977 2.63185 20.2803 2.57396 18.9671C2.5105 17.543 2.49484 17.1156 2.49484 13.5131C2.49484 9.91064 2.5105 9.47818 2.57396 8.05943C2.63185 6.74081 2.85334 6.02876 3.03794 5.55406C3.25428 4.96851 3.59712 4.43591 4.05081 4.00324C4.48842 3.55491 5.01587 3.21207 5.60142 2.99594C6.07612 2.81133 6.79353 2.58985 8.10679 2.53174C9.53089 2.46849 9.95821 2.45263 13.5605 2.45263C17.1684 2.45263 17.5955 2.46849 19.0144 2.53174C20.333 2.58985 21.0451 2.81133 21.5198 2.99594C22.1051 3.21207 22.6379 3.55491 23.0704 4.00324C23.5187 4.44106 23.8616 4.96851 24.0779 5.55406C24.2625 6.02876 24.484 6.74596 24.5421 8.05943C24.6054 9.48353 24.6212 9.91064 24.6212 13.5131C24.6212 17.1156 24.6054 17.5376 24.5421 18.9617Z" fill="white"/>
<path d="M13.5499 6.56689C9.7208 6.56689 6.61401 9.67347 6.61401 13.5028C6.61401 17.3322 9.7208 20.4387 13.5499 20.4387C17.3793 20.4387 20.4859 17.3322 20.4859 13.5028C20.4859 9.67347 17.3793 6.56689 13.5499 6.56689ZM13.5499 18.002C11.0658 18.002 9.05078 15.9872 9.05078 13.5028C9.05078 11.0185 11.0658 9.00366 13.5499 9.00366C16.0343 9.00366 18.0491 11.0185 18.0491 13.5028C18.0491 15.9872 16.0343 18.002 13.5499 18.002Z" fill="white"/>
<path d="M22.3795 6.29256C22.3795 7.18675 21.6545 7.91178 20.7601 7.91178C19.8659 7.91178 19.1409 7.18675 19.1409 6.29256C19.1409 5.39817 19.8659 4.67334 20.7601 4.67334C21.6545 4.67334 22.3795 5.39817 22.3795 6.29256Z" fill="white"/>
</g>
<defs>
<clipPath id="clip0">
<rect width="27" height="27" fill="white"/>
</clipPath>
</defs>
</svg>
