<svg width="38" height="38" viewBox="0 0 38 38" fill="none" xmlns="http://www.w3.org/2000/svg">
<g clip-path="url(#clip0)">
<path d="M35.3057 18.2371L35.3104 18.2704C34.681 18.3551 34.1649 18.836 34.0487 19.4759L31.5235 33.3667C31.3953 34.0723 30.7799 34.5852 30.0629 34.5852H7.89993C7.18297 34.5852 6.56748 34.0723 6.43934 33.3667L3.91416 19.4759C3.79791 18.836 3.28186 18.3551 2.65245 18.2704L2.65709 18.2371C1.56613 18.0944 0.723633 17.1609 0.723633 16.0305C0.723633 14.8007 1.72037 13.804 2.95019 13.804H35.0126C36.2425 13.804 37.2392 14.8007 37.2392 16.0305C37.2392 17.1609 36.3967 18.0944 35.3057 18.2371ZM27.8876 29.3899V23.4524C27.8876 22.6331 27.2226 21.968 26.4033 21.968C25.5831 21.968 24.9189 22.6322 24.9189 23.4524V29.3899C24.9189 30.2101 25.5831 30.8743 26.4033 30.8743C27.2234 30.8743 27.8876 30.2101 27.8876 29.3899ZM20.4658 29.3899V23.4524C20.4658 22.6331 19.8007 21.968 18.9814 21.968C18.1612 21.968 17.497 22.6322 17.497 23.4524V29.3899C17.497 30.2101 18.1612 30.8743 18.9814 30.8743C19.8016 30.8743 20.4658 30.2101 20.4658 29.3899ZM13.0439 29.3899V23.4524C13.0439 22.6331 12.3789 21.968 11.5595 21.968C10.7394 21.968 10.0752 22.6322 10.0752 23.4524V29.3899C10.0752 30.2101 10.7394 30.8743 11.5595 30.8743C12.3797 30.8743 13.0439 30.2101 13.0439 29.3899Z" fill="#EEEEEE"/>
<path d="M23.2475 4.17622L30.2456 13.8038H26.8495L20.6528 5.61885C20.2542 4.90189 20.5125 3.99792 21.2289 3.60016C21.9473 3.20239 22.8512 3.46071 23.2475 4.17622Z" fill="#483972"/>
<path d="M16.734 3.60016C17.4504 3.99792 17.7087 4.90189 17.31 5.61885L11.1134 13.8038H7.71729L14.7153 4.17622C15.1131 3.46071 16.0156 3.20239 16.734 3.60016Z" fill="#483972"/>
<path d="M19 18.9993C19.4096 18.9993 19.7422 18.6667 19.7422 18.2571C19.7422 17.8474 19.4096 17.5149 19 17.5149C18.5903 17.5149 18.2578 17.8474 18.2578 18.2571C18.2578 18.6667 18.5903 18.9993 19 18.9993Z" fill="#483972"/>
<path d="M35.0312 13.0616H30.6421L23.8906 3.77294C23.2841 2.73359 21.9481 2.36365 20.887 2.95132C19.8114 3.54883 19.4247 4.90362 20.0225 5.9795C20.0396 6.00994 20.0584 6.03922 20.0796 6.06705L25.3752 13.0616H12.6247L17.9203 6.06705C17.9412 6.03922 17.9603 6.00994 17.9774 5.9795C18.5738 4.90623 18.1914 3.55028 17.112 2.95074C16.0533 2.36423 14.7173 2.73388 14.1097 3.77236L7.35779 13.0616H2.96874C1.33188 13.0616 0 14.3935 0 16.0303C0 17.3213 0.837858 18.4453 2.01811 18.8431C2.14393 18.9405 2.30107 18.9991 2.47212 18.9991C2.50633 18.9991 2.53851 19.0011 2.57214 19.0058C2.89163 19.0487 3.14472 19.291 3.20271 19.6082L5.72759 33.4993C5.92038 34.5584 6.84174 35.3272 7.91849 35.3272H30.0814C31.1582 35.3272 32.0795 34.5584 32.2723 33.499L34.7972 19.6085C34.8552 19.291 35.1086 19.0487 35.4292 19.0058C35.4617 19.0011 35.4939 18.9991 35.5278 18.9991C35.7 18.9991 35.8583 18.9399 35.9841 18.8414C37.1653 18.441 37.9999 17.319 37.9999 16.0303C37.9999 14.3935 36.668 13.0616 35.0312 13.0616ZM21.2999 5.21963C21.1303 4.86854 21.2619 4.44091 21.6069 4.24956C21.9661 4.05039 22.4189 4.17882 22.617 4.53571C22.6315 4.56238 22.648 4.5879 22.6657 4.61225L28.807 13.0616H27.2368L21.2999 5.21963ZM15.3343 4.61254C15.3519 4.58819 15.3679 4.56296 15.3827 4.53687C15.5813 4.17969 16.0344 4.05097 16.3922 4.24898C16.7377 4.44091 16.8699 4.86796 16.7001 5.21963L10.7631 13.0616H9.19296L15.3343 4.61254ZM35.0312 17.5147H21.9881C21.6359 17.5147 21.3158 17.751 21.2425 18.0951C21.1387 18.5816 21.5048 18.9991 21.9704 18.9991H33.4271C33.3882 19.1095 33.3575 19.2244 33.336 19.3426L30.8123 33.2337C30.7482 33.5866 30.4412 33.8428 30.0823 33.8428H7.91849C7.55928 33.8428 7.25226 33.5866 7.1879 33.2337L4.66302 19.3426C4.64156 19.2244 4.61083 19.1095 4.57198 18.9991H16.008C16.38 18.9991 16.7125 18.7353 16.7656 18.3671C16.8314 17.9081 16.4774 17.5147 16.0312 17.5147H2.96874C2.06334 17.5147 1.35826 16.7056 1.50351 15.7912C1.61831 15.0661 2.26744 14.546 3.00179 14.546H34.9967C35.7751 14.546 36.448 15.1313 36.5106 15.9074C36.5817 16.7879 35.8812 17.5147 35.0312 17.5147Z" fill="#695799"/>
<path d="M16.7549 23.4979V29.345C16.7549 30.5162 17.6417 31.522 18.8098 31.6101C20.1147 31.7084 21.208 30.6745 21.208 29.3899V23.4524C21.208 22.1684 20.1223 21.1389 18.8182 21.2316C17.6815 21.3125 16.7549 22.358 16.7549 23.4979ZM19.7236 29.3899C19.7236 29.8361 19.3282 30.1912 18.8695 30.124C18.5019 30.0698 18.2393 29.7375 18.2393 29.3661V23.4756C18.2393 23.1039 18.5028 22.7714 18.871 22.7183C19.3296 22.6519 19.7236 23.0065 19.7236 23.4524V29.3899Z" fill="#695799"/>
<path d="M28.6298 29.3448V23.4975C28.6298 22.3259 27.743 21.3202 26.5749 21.2323C25.27 21.1338 24.1767 22.1679 24.1767 23.4522V29.3897C24.1767 30.6744 25.27 31.7082 26.5749 31.6099C27.743 31.5218 28.6298 30.5161 28.6298 29.3448ZM25.6611 23.4522C25.6611 23.0061 26.0565 22.6509 26.5152 22.7182C26.8828 22.7724 27.1454 23.1046 27.1454 23.476V29.3657C27.1454 29.7373 26.8828 30.0696 26.5152 30.1235C26.0565 30.1911 25.6611 29.8356 25.6611 29.3897V23.4522Z" fill="#695799"/>
<path d="M9.33301 23.4979V29.345C9.33301 30.5162 10.2199 31.522 11.3879 31.6101C12.6929 31.7084 13.7861 30.6745 13.7861 29.3899V23.4524C13.7861 22.1681 12.7004 21.1389 11.3963 21.2316C10.2593 21.3125 9.33301 22.358 9.33301 23.4979ZM12.3018 29.3899C12.3018 29.8358 11.9063 30.1912 11.4477 30.124C11.08 30.0698 10.8174 29.7375 10.8174 29.3661V23.4756C10.8174 23.1036 11.0812 22.7714 11.4491 22.718C11.9078 22.6519 12.3018 23.0062 12.3018 23.4524V29.3899Z" fill="#695799"/>
</g>
<defs>
<clipPath id="clip0">
<rect width="38" height="38" fill="white"/>
</clipPath>
</defs>
</svg>
