<svg width="35" height="38" viewBox="0 0 35 38" fill="none" xmlns="http://www.w3.org/2000/svg">
<path d="M8.54691 32.6077C3.87759 29.6736 2.46624 23.4894 5.40032 18.82L12.8491 6.96607C13.2413 6.34179 14.0642 6.15505 14.6873 6.54655C15.3105 6.93819 15.4993 7.76064 15.107 8.38492L7.65828 20.2389C5.50734 23.6619 6.5417 28.1981 9.96576 30.3497C13.3898 32.5013 17.9256 31.4653 20.0766 28.0422L27.8801 15.6237C29.2492 13.4449 28.5905 10.5588 26.4117 9.18972C24.2327 7.82049 21.3466 8.47916 19.9775 10.6579L12.8834 21.9476C12.2968 22.8811 12.5789 24.1184 13.5127 24.7051C14.4464 25.2918 15.6836 25.0093 16.2702 24.0758L23.0096 13.3507C23.4019 12.7264 24.2248 12.5397 24.8478 12.9312C25.4711 13.3228 25.6598 14.1453 25.2676 14.7696L18.5282 25.4946C17.1591 27.6734 14.2728 28.332 12.094 26.9629C9.91517 25.5938 9.2563 22.7075 10.6254 20.5287L17.7195 9.2391C19.8703 5.81629 24.4063 4.78004 27.8305 6.93176C31.2546 9.08335 32.2888 13.6198 30.138 17.0426L22.3345 29.4611C19.4005 34.1304 13.2162 35.5418 8.54691 32.6077Z" fill="white"/>
</svg>
