<svg width="26" height="26" viewBox="0 0 26 26" fill="none" xmlns="http://www.w3.org/2000/svg">
<g clip-path="url(#clip0)">
<path d="M25.4583 14.0836C25.7577 14.0836 26 13.8413 26 13.5419V10.8335C26 9.6385 25.0283 8.66672 23.8332 8.66672H19.756C19.6004 8.32216 19.4997 7.96272 19.4997 7.58337C19.4997 6.6026 20.0441 5.69592 20.9206 5.21719C21.0481 5.14737 21.1428 5.02889 21.1819 4.88868C21.2216 4.74903 21.2031 4.59881 21.1311 4.47236L19.8113 2.16702C19.523 1.66448 19.0575 1.30529 18.5004 1.15614C17.946 1.00801 17.3663 1.08581 16.8701 1.37461L1.07355 10.5711C0.0483427 11.1678 -0.304446 12.4934 0.286413 13.525L1.6512 15.9107C1.72367 16.0376 1.84428 16.1297 1.9855 16.1662C2.12622 16.2027 2.27644 16.181 2.40131 16.1058C2.83825 15.8424 3.30591 15.7086 3.79099 15.7086C4.97341 15.7086 6.00634 16.4876 6.35796 17.6145C6.0073 18.7043 4.99576 19.5004 3.79099 19.5004C3.49157 19.5004 3.24929 19.7427 3.24929 20.0421V22.7505C3.24929 23.9454 4.22102 24.9172 5.41604 24.9172H23.8333C25.0283 24.9172 26 23.9455 26 22.7505V20.0421C26 19.7427 25.7578 19.5004 25.4583 19.5004C23.965 19.5004 22.7499 18.2853 22.7499 16.792C22.7499 15.2987 23.965 14.0836 25.4583 14.0836ZM17.4156 2.31094C17.6605 2.16809 17.9483 2.12843 18.2202 2.20252C18.4968 2.27656 18.7275 2.45537 18.8708 2.70558L19.9357 4.5655C18.9872 5.27697 18.4164 6.39053 18.4164 7.58337C18.4164 7.95073 18.4769 8.31495 18.5839 8.66672H6.49792L17.4156 2.31094ZM3.79094 14.6253C3.2953 14.6253 2.80067 14.7279 2.3357 14.9258L1.22696 12.987C0.930187 12.4696 1.10635 11.8058 1.6184 11.5075L3.27889 10.5408C3.26569 10.6375 3.24929 10.7333 3.24929 10.8335V13.5419C3.24929 13.8413 3.49157 14.0836 3.79099 14.0836C4.78765 14.0836 5.65076 14.6309 6.12106 15.4349C5.47241 14.9245 4.65983 14.6253 3.79094 14.6253ZM21.6665 16.792C21.6665 18.699 23.0816 20.2817 24.9166 20.5451V22.7505C24.9166 23.3477 24.4304 23.8338 23.8332 23.8338H10.8328V22.8859C10.8328 22.5864 10.5906 22.3442 10.2911 22.3442C9.99172 22.3442 9.74944 22.5864 9.74944 22.8859V23.8338H5.41599C4.81878 23.8338 4.33264 23.3477 4.33264 22.7505V20.5451C6.16767 20.2817 7.58274 18.699 7.58274 16.792C7.58274 14.885 6.16767 13.3022 4.33264 13.0388V10.8335C4.33264 10.2363 4.81878 9.75012 5.41599 9.75012H9.74944V10.9689C9.74944 11.2683 9.99172 11.5106 10.2911 11.5106C10.5906 11.5106 10.8328 11.2683 10.8328 10.9689V9.75012H23.8332C24.4304 9.75012 24.9166 10.2363 24.9166 10.8335V13.0388C23.0816 13.3022 21.6665 14.885 21.6665 16.792Z" fill="#7A65B4"/>
<path d="M10.2907 13.6772C9.99131 13.6772 9.74902 13.9195 9.74902 14.2189V15.3023C9.74902 15.6017 9.99131 15.844 10.2907 15.844C10.5901 15.844 10.8324 15.6017 10.8324 15.3023V14.2189C10.8324 13.9195 10.5901 13.6772 10.2907 13.6772Z" fill="#7A65B4"/>
<path d="M10.2907 18.0107C9.99131 18.0107 9.74902 18.253 9.74902 18.5524V19.6358C9.74902 19.9352 9.99131 20.1775 10.2907 20.1775C10.5901 20.1775 10.8324 19.9352 10.8324 19.6358V18.5524C10.8324 18.253 10.5901 18.0107 10.2907 18.0107Z" fill="#7A65B4"/>
<path d="M20.3658 12.0252C20.1273 11.847 19.7871 11.8945 19.6078 12.1336L13.1076 20.8006C12.9277 21.0397 12.9764 21.3793 13.216 21.5586C13.3134 21.6316 13.4271 21.667 13.5403 21.667C13.7053 21.667 13.8677 21.5924 13.9741 21.4502L20.4743 12.7832C20.6541 12.5441 20.6055 12.2045 20.3658 12.0252Z" fill="#7A65B4"/>
<path d="M14.625 16.2503C15.5365 16.2503 16.2501 15.2986 16.2501 14.0835C16.2501 12.8684 15.5365 11.9167 14.625 11.9167C13.7136 11.9167 13 12.8684 13 14.0835C13 15.2986 13.7136 16.2503 14.625 16.2503ZM14.625 13.0002C14.8462 13.0002 15.1667 13.4223 15.1667 14.0835C15.1667 14.7447 14.8462 15.1669 14.625 15.1669C14.4039 15.1669 14.0833 14.7447 14.0833 14.0835C14.0833 13.4223 14.4039 13.0002 14.625 13.0002Z" fill="#7A65B4"/>
<path d="M18.9581 17.3337C18.0466 17.3337 17.333 18.2854 17.333 19.5005C17.333 20.7156 18.0466 21.6672 18.9581 21.6672C19.8695 21.6672 20.5831 20.7156 20.5831 19.5005C20.5831 18.2854 19.8695 17.3337 18.9581 17.3337ZM18.9581 20.5838C18.737 20.5838 18.4164 20.1617 18.4164 19.5005C18.4164 18.8393 18.737 18.4171 18.9581 18.4171C19.1792 18.4171 19.4998 18.8393 19.4998 19.5005C19.4998 20.1617 19.1792 20.5838 18.9581 20.5838Z" fill="#7A65B4"/>
</g>
<defs>
<clipPath id="clip0">
<rect width="26" height="26" fill="white"/>
</clipPath>
</defs>
</svg>
