<svg xmlns="http://www.w3.org/2000/svg" viewBox="0 0 602.82 167.1"><defs><style>.cls-1{fill:#7a65b4;}</style></defs><g id="Слой_2" data-name="Слой 2"><g id="Слой_2-2" data-name="Слой 2"><polyline class="cls-1" points="54.02 55.65 9.36 13.38 9.27 115.75 0 115.75 0 0 9.27 0 58.68 47.87 108.38 0 117.27 0 117.27 115.75 108.58 115.75 108.58 13.38 64.33 55.68 64.33 167.1 54.02 167.1 54.02 55.65"/><path d="M200.88,83.79l4.37,4.08a34.25,34.25,0,0,1-51-9.45,34.19,34.19,0,0,1,0-34.29,34.25,34.25,0,0,1,29.59-17,33.14,33.14,0,0,1,21.38,7.5L201,38.85a28.06,28.06,0,0,0-45.12,22.42A27.33,27.33,0,0,0,164,81.22a26.86,26.86,0,0,0,19.85,8.27A27.42,27.42,0,0,0,200.88,83.79Z"/><path d="M245,28h6.85L280,94.52h-6.46l-8.93-20.71H232.13L223.2,94.52h-6.46Zm17.2,39.71L248.38,35.24,234.6,67.73Z"/><path d="M282.67,28h46.55v5.7H309v60.8h-6.08V33.82H282.67Z"/><path d="M360.38,28h6.84l28.22,66.5H389l-8.93-20.71H347.56l-8.93,20.71h-6.46Zm17.2,39.71L363.8,35.24,350,67.73Z"/><path d="M412.73,28h6.17V88.73H451v5.79H412.73Z"/><path d="M478.85,31.73a34.09,34.09,0,0,1,51.3,29.54,34.23,34.23,0,0,1-51.3,29.55,34,34,0,0,1-12.5-12.4,34.19,34.19,0,0,1,0-34.29A34,34,0,0,1,478.85,31.73Zm37,9.64a28.05,28.05,0,0,0-47.93,19.9,27.19,27.19,0,0,0,8.17,19.91,28.17,28.17,0,0,0,39.76,0,27.16,27.16,0,0,0,8.22-19.91A27.14,27.14,0,0,0,515.85,41.37Z"/><path d="M602.73,62.79V88a33.11,33.11,0,0,1-21.19,7.41,34.25,34.25,0,0,1-29.59-17,34.19,34.19,0,0,1,0-34.29,34.25,34.25,0,0,1,29.59-17,32.74,32.74,0,0,1,21.28,7.5l-4.18,4.18a27.51,27.51,0,0,0-17.1-5.7,26.92,26.92,0,0,0-19.85,8.22,27.17,27.17,0,0,0-8.17,19.9,27.19,27.19,0,0,0,8.17,19.91,27.77,27.77,0,0,0,35,3.65v-22Z"/></g></g></svg>