<svg width="43" height="43" viewBox="0 0 43 43" fill="none" xmlns="http://www.w3.org/2000/svg">
<path d="M21.5 0L8.02905 21.5L21.5 43C33.3741 43 43 33.3741 43 21.5C43 9.62587 33.3741 0 21.5 0Z" fill="#EEEEEE"/>
<path d="M0 21.5C0 33.3741 9.62587 43 21.5 43V0C9.62587 0 0 9.62587 0 21.5Z" fill="white"/>
<path d="M21.5 5.03906L15.9749 13.8574L21.5 22.6758C26.3703 22.6758 30.3184 18.7277 30.3184 13.8574C30.3184 8.98717 26.3703 5.03906 21.5 5.03906Z" fill="#695799"/>
<path d="M12.6816 13.8574C12.6816 18.7277 16.6297 22.6758 21.5 22.6758V5.03906C16.6297 5.03906 12.6816 8.98717 12.6816 13.8574Z" fill="#7A65B4"/>
<path d="M35.6639 28.172C33.9898 26.2802 31.5822 25.1953 29.0586 25.1953H21.5L16.4609 31.5781L21.5 37.9609C27.4059 37.9609 32.8913 34.7687 35.8155 29.6299L36.2611 28.8467L35.6639 28.172Z" fill="#695799"/>
<path d="M13.9414 25.1953C11.4177 25.1953 9.01014 26.2802 7.33608 28.172L6.73895 28.8468L7.18457 29.6299C10.1087 34.7687 15.594 37.9609 21.5 37.9609V25.1953H13.9414Z" fill="#7A65B4"/>
</svg>
