<svg width="18" height="18" viewBox="0 0 18 18" fill="none" xmlns="http://www.w3.org/2000/svg">
<path d="M13.2094 11.6185C14.0951 10.4089 14.6249 8.92316 14.6249 7.31249C14.6249 3.28052 11.3444 0 7.31245 0C3.28048 0 0 3.28052 0 7.31249C0 11.3445 3.28052 14.625 7.31248 14.625C8.92315 14.625 10.409 14.0951 11.6186 13.2093L16.4092 17.9999L18 16.4091C18 16.4091 13.2094 11.6185 13.2094 11.6185ZM7.31248 12.375C4.52086 12.375 2.25001 10.1041 2.25001 7.31249C2.25001 4.52086 4.52086 2.25001 7.31248 2.25001C10.1041 2.25001 12.375 4.52086 12.375 7.31249C12.375 10.1041 10.1041 12.375 7.31248 12.375Z" fill="#7A65B4"/>
</svg>
